<?xml version="1.0" encoding="UTF-8" standalone="no"?>
<!-- Created with Inkscape (http://www.inkscape.org/) -->

<svg
   xmlns:dc="http://purl.org/dc/elements/1.1/"
   xmlns:cc="http://creativecommons.org/ns#"
   xmlns:rdf="http://www.w3.org/1999/02/22-rdf-syntax-ns#"
   xmlns:svg="http://www.w3.org/2000/svg"
   xmlns="http://www.w3.org/2000/svg"
   xmlns:sodipodi="http://sodipodi.sourceforge.net/DTD/sodipodi-0.dtd"
   xmlns:inkscape="http://www.inkscape.org/namespaces/inkscape"
   width="511.70078"
   height="447.51968"
   viewBox="0 0 135.38834 118.407"
   version="1.1"
   id="svg8"
   inkscape:version="0.92.4 (5da689c313, 2019-01-14)"
   sodipodi:docname="favicon.svg">
  <defs
     id="defs2" />
  <sodipodi:namedview
     id="base"
     pagecolor="#ffffff"
     bordercolor="#666666"
     borderopacity="1.0"
     inkscape:pageopacity="0.0"
     inkscape:pageshadow="2"
     inkscape:zoom="1.7092097"
     inkscape:cx="278.17717"
     inkscape:cy="214.43523"
     inkscape:document-units="mm"
     inkscape:current-layer="layer1"
     showgrid="false"
     inkscape:window-width="1920"
     inkscape:window-height="1017"
     inkscape:window-x="1912"
     inkscape:window-y="-8"
     inkscape:window-maximized="1"
     units="px" />
  <metadata
     id="metadata5">
    <rdf:RDF>
      <cc:Work
         rdf:about="">
        <dc:format>image/svg+xml</dc:format>
        <dc:type
           rdf:resource="http://purl.org/dc/dcmitype/StillImage" />
        <dc:title></dc:title>
      </cc:Work>
    </rdf:RDF>
  </metadata>
  <g
     inkscape:label="Layer 1"
     inkscape:groupmode="layer"
     id="layer1"
     transform="translate(0,-178.59349)">
    <path
       id="path4562"
       d="m 67.956599,178.44544 c -37.412083,0 -67.73333241,24.63271 -67.73333241,55.03334 0,13.12333 5.66208401,25.13541 15.08124941,34.58104 -3.307292,13.335 -14.36687442,25.21479 -14.49916541,25.34708 -0.582084,0.60855 -0.740834,1.50813 -0.396875,2.30188 0.343958,0.79375 1.08479101,1.27 1.93145801,1.27 17.5418744,0 30.6916654,-8.41375 37.2004154,-13.59958 8.651875,3.25437 18.25625,5.13291 28.41625,5.13291 37.412081,0 67.733331,-24.63271 67.733331,-55.03333 0,-30.40063 -30.32125,-55.03334 -67.733331,-55.03334 z"
       inkscape:connector-curvature="0"
       style="stroke-width:0.26458332" />
    <g
       id="g4581"
       transform="matrix(0.07488285,0,0,0.07488285,1.9346269,202.73073)"
       style="fill:#ffffff;fill-opacity:1">
	<path
   id="path4575"
   d="m 985.7,390 c 0,55.6 -45.1,100.6 -100.6,100.6 -55.5,0 -100.7,-45 -100.7,-100.6 0,-75.5 -25.2,-100.6 -100.6,-100.6 -75.4,0 -100.6,25.2 -100.6,100.6 0,55.6 -45.1,100.6 -100.6,100.6 -55.5,0 -100.7,-45 -100.7,-100.6 0,-55.6 45.1,-100.6 100.6,-100.6 75.5,0 100.6,-25.2 100.6,-100.6 0,-55.6 45.1,-100.6 100.6,-100.6 55.5,0 100.6,45.1 100.6,100.6 0,75.5 25.2,100.6 100.6,100.6 55.8,0 100.8,45.1 100.8,100.6 z"
   class="st0"
   inkscape:connector-curvature="0"
   style="fill:#ffffff;fill-opacity:1" />

	<circle
   id="circle4577"
   r="100.6"
   cy="591.29999"
   cx="281.20001"
   class="st0"
   style="fill:#ffffff;fill-opacity:1" />

	<path
   id="path4579"
   d="m 1589.6,188.7 c 0,55.6 -45.1,100.6 -100.6,100.6 -75.5,0 -100.6,25.2 -100.6,100.6 0,55.6 -45.1,100.6 -100.6,100.6 -75.5,0 -100.6,25.2 -100.6,100.6 0,55.6 -45.1,100.6 -100.6,100.6 -55.6,0 -100.6,-45.1 -100.6,-100.6 0,-55.6 45.1,-100.6 100.6,-100.6 75.5,0 100.6,-25.2 100.6,-100.6 0,-55.6 45.1,-100.6 100.6,-100.6 75.5,0 100.6,-25.2 100.6,-100.6 0,-55.6 45.1,-100.6 100.6,-100.6 55.5,0 100.6,45.1 100.6,100.6 z"
   class="st0"
   inkscape:connector-curvature="0"
   style="fill:#ffffff;fill-opacity:1" />

</g>
  </g>
  <style
     id="style4518"
     type="text/css">
	.st0{fill:#4A90E2;}
	.st1{fill:#000034;}
	.st2{fill:#FFFFFF;}
</style>
  <style
     id="style4573"
     type="text/css">
	.st0{fill:#4A90E2;}
	.st1{fill:#000034;}
	.st2{fill:#FFFFFF;}
</style>
</svg>
